# xmcd
#
# Track frame offsets: 
#        150
#        15296
#        29515
#        43491
#        60730
#        76043
#        93160
#        114290
#        131088
#        148694
#        164366
#        181041
#        195360
#        213916
#        230376
#        249216
#        265048
#        280294
#        298636
#        313387
#        339500
#
# Disc length: 4795 seconds
#
# Revision: 0
# Processed by: cddbd v1.5.2PL0 Copyright (c) Steve Scherf et al.
# Submitted via: ExactAudioCopy v1.0b3
#
DISCID=2212b915
DTITLE=Various Artist - Trance Arena Vol. 5 - CD 1
DYEAR=1900
DGENRE=
TTITLE0=Novaspace - Beds Are Burning (Radio Edit)
TTITLE1=Kate Ryan - Only If I (Radio Edit)
TTITLE2=Lasgo - Surrender (Radio Edit)
TTITLE3=DJs @ Work - Some Years Ago (DJ Shog Remix Edit)
TTITLE4=DJ Dean Pres. Barbarez - It's A Dream (DJ Manian Vs. Yanou Rad
TTITLE4=io Cut)
TTITLE5=Cosmic Gate - Tomorrow (Radio Edit)
TTITLE6=Rank 1 - It's Up To You (SymSonic) (Dumonde Remix Edit)
TTITLE7=Dumonde - Kalt (Short Mix)
TTITLE8=Megara Vs. DJ Lee - Human Nature (Single Mix)
TTITLE9=Four Heads - Raybeam (Short Mix)
TTITLE10=Neo Cortex - Elements 2004 (Radio Edit)
TTITLE11=Svenson - Sunlight Theory (O-Zone Radio Edit)
TTITLE12=Cosmic Culture - Time Of Your Life (OHM Boyz Rmx Edit)
TTITLE13=Andre Visior - Angels (Short Mix)
TTITLE14=Ayu - Depend On You (Svenson and Gielen Radio Edit)
TTITLE15=Motorcycle - As The Rush Comes (Radio Edit)
TTITLE16=Stormchaser - Back To Love (Impulse Drive Edit)
TTITLE17=Marc Dawn - Random Walk (7'' Edit)
TTITLE18=Based On Experience - Rock The Bitches (Sean Tyas Vs. Beam Ed
TTITLE18=it)
TTITLE19=Push - Electric Eclipse (Original Mix Edit)
TTITLE20=Daten-CD
EXTD=
EXTT0=
EXTT1=
EXTT2=
EXTT3=
EXTT4=
EXTT5=
EXTT6=
EXTT7=
EXTT8=
EXTT9=
EXTT10=
EXTT11=
EXTT12=
EXTT13=
EXTT14=
EXTT15=
EXTT16=
EXTT17=
EXTT18=
EXTT19=
EXTT20=
PLAYORDER=
